<svg xmlns="http://www.w3.org/2000/svg" viewBox="0 0 98 98" width="40" height="40">
  <path fill="#FF0000" d="M78.8,40.3l-5.6-3.2l5.6-3.2c5.9-3.4,7.9-10.9,4.4-16.9c-3.4-5.9-10.9-7.9-16.9-4.4l-51.6,29
    c-5.9,3.4-7.9,10.9-4.4,16.9c1,1.8,2.3,3.3,3.9,4.4l5.6,3.2l-5.6,3.2c-5.9,3.4-7.9,10.9-4.4,16.9c2.3,3.9,6.5,6.1,10.8,6.1
    c2.1,0,4.3-0.5,6.1-1.7l51.6-29c5.9-3.4,7.9-10.9,4.4-16.9C81.7,42.9,80.4,41.5,78.8,40.3z"></path>
  <polygon fill="#FFFFFF" points="42,61.1 66,47.7 42,34.3"></polygon>
</svg>
